<svg width="160" height="56" viewBox="0 0 160 56" fill="none" xmlns="http://www.w3.org/2000/svg">
<path d="M0 25.8986V0.107911H18.4168V3.32725H3.12412V11.1328H15.2064V14.3342H3.12412V25.8986H0Z" fill="black"/>
<path d="M34.5069 25.8986V0.107911H37.6138V23.0929H51.8708V25.8986H34.5069Z" fill="black"/>
<path d="M103.089 25.8986L110.822 12.6436L103.434 0.107911H106.904L112.237 9.4422L117.605 0H121.074L113.687 12.5356L121.42 25.7907H118.106L112.272 15.701L106.403 25.8986H103.089Z" fill="black"/>
<path d="M147.176 25.8986V12.8953L137.406 0.107911H141.445L148.694 10.1256L155.961 0H160L150.248 12.8594L150.213 25.8986H147.176Z" fill="black"/>
<rect x="68.5083" width="18.1215" height="3.23732" fill="black"/>
<rect x="68.5083" y="22.6611" width="18.1215" height="3.23732" fill="black"/>
<rect x="68.5083" y="11.0991" width="18.1215" height="3.23732" fill="black"/>
<path d="M39.798 48.4172C38.358 48.4172 37.078 48.1172 35.958 47.5172C34.838 46.9172 33.9647 46.0705 33.338 44.9772C32.7114 43.8705 32.398 42.5905 32.398 41.1372C32.398 39.6839 32.7114 38.4039 33.338 37.2972C33.9647 36.1905 34.838 35.3372 35.958 34.7372C37.078 34.1372 38.358 33.8372 39.798 33.8372C41.7314 33.8372 43.338 34.3172 44.618 35.2772V37.2372C43.458 36.2239 41.9114 35.7172 39.978 35.7172C38.9247 35.7172 37.978 35.9372 37.138 36.3772C36.298 36.8172 35.638 37.4505 35.158 38.2772C34.6914 39.0905 34.458 40.0439 34.458 41.1372C34.458 42.2305 34.6914 43.1905 35.158 44.0172C35.6247 44.8439 36.2714 45.4772 37.098 45.9172C37.9247 46.3572 38.858 46.5772 39.898 46.5772C41.1114 46.5772 42.1047 46.3305 42.878 45.8372V42.1772H40.218V40.5172H44.918V46.9172C44.2914 47.4372 43.5514 47.8172 42.698 48.0572C41.858 48.2972 40.8914 48.4172 39.798 48.4172ZM53.1145 34.1372H58.7345C60.2278 34.1372 61.3745 34.4972 62.1745 35.2172C62.9745 35.9372 63.3745 36.9905 63.3745 38.3772C63.3745 39.4039 63.1011 40.2772 62.5545 40.9972C62.0078 41.7039 61.2345 42.1839 60.2345 42.4372L63.3145 48.1172H61.1945L58.2145 42.5972H55.1545V48.1172H53.1145V34.1372ZM58.3945 40.8772C59.2878 40.8772 59.9945 40.6705 60.5145 40.2572C61.0478 39.8305 61.3145 39.2039 61.3145 38.3772C61.3145 37.4705 61.0545 36.8239 60.5345 36.4372C60.0278 36.0505 59.3145 35.8572 58.3945 35.8572H55.1545V40.8772H58.3945ZM78.2424 48.4172C76.8558 48.4172 75.6024 48.1172 74.4824 47.5172C73.3624 46.9039 72.4824 46.0439 71.8424 44.9372C71.2024 43.8305 70.8824 42.5639 70.8824 41.1372C70.8824 39.7105 71.2024 38.4439 71.8424 37.3372C72.4824 36.2305 73.3624 35.3705 74.4824 34.7572C75.6024 34.1439 76.8558 33.8372 78.2424 33.8372C79.6291 33.8372 80.8824 34.1439 82.0024 34.7572C83.1224 35.3705 84.0024 36.2305 84.6424 37.3372C85.2824 38.4439 85.6024 39.7105 85.6024 41.1372C85.6024 42.5639 85.2824 43.8305 84.6424 44.9372C84.0024 46.0439 83.1224 46.9039 82.0024 47.5172C80.8824 48.1172 79.6291 48.4172 78.2424 48.4172ZM78.2424 46.5772C79.2291 46.5772 80.1224 46.3572 80.9224 45.9172C81.7358 45.4639 82.3758 44.8305 82.8424 44.0172C83.3091 43.1905 83.5424 42.2305 83.5424 41.1372C83.5424 40.0572 83.3091 39.1105 82.8424 38.2972C82.3891 37.4705 81.7624 36.8372 80.9624 36.3972C80.1624 35.9439 79.2691 35.7172 78.2824 35.7172C77.2824 35.7172 76.3758 35.9372 75.5624 36.3772C74.7624 36.8172 74.1224 37.4505 73.6424 38.2772C73.1758 39.1039 72.9424 40.0572 72.9424 41.1372C72.9424 42.2305 73.1758 43.1905 73.6424 44.0172C74.1091 44.8305 74.7424 45.4639 75.5424 45.9172C76.3558 46.3572 77.2558 46.5772 78.2424 46.5772ZM99.4859 48.4172C97.5792 48.4172 96.1392 47.9305 95.1659 46.9572C94.1925 45.9705 93.7059 44.6172 93.7059 42.8972V34.1372H95.7459V42.9772C95.7459 44.1639 96.0792 45.0639 96.7459 45.6772C97.4125 46.2772 98.3259 46.5772 99.4859 46.5772C100.633 46.5772 101.539 46.2772 102.206 45.6772C102.873 45.0639 103.206 44.1639 103.206 42.9772V34.1372H105.246V42.8972C105.246 44.6039 104.759 45.9505 103.786 46.9372C102.813 47.9239 101.379 48.4172 99.4859 48.4172ZM113.751 34.1372H119.131C120.638 34.1372 121.825 34.5172 122.691 35.2772C123.571 36.0239 124.011 37.0905 124.011 38.4772C124.011 39.8905 123.578 40.9639 122.711 41.6972C121.845 42.4172 120.651 42.7772 119.131 42.7772H115.791V48.1172H113.751V34.1372ZM118.911 41.0772C119.845 41.0772 120.585 40.8839 121.131 40.4972C121.678 40.1105 121.951 39.4372 121.951 38.4772C121.951 37.5172 121.678 36.8439 121.131 36.4572C120.585 36.0572 119.845 35.8572 118.911 35.8572H115.791V41.0772H118.911Z" fill="black"/>
</svg>
