<svg width="931" height="210" viewBox="0 0 931 210" fill="none" xmlns="http://www.w3.org/2000/svg">
<path d="M313.754 183.96C309.146 183.96 305.05 183 301.466 181.08C297.882 179.16 295.087 176.451 293.082 172.952C291.076 169.411 290.074 165.315 290.074 160.664C290.074 156.013 291.076 151.917 293.082 148.376C295.087 144.835 297.882 142.104 301.466 140.184C305.05 138.264 309.146 137.304 313.754 137.304C319.94 137.304 325.082 138.84 329.178 141.912V148.184C325.466 144.941 320.516 143.32 314.33 143.32C310.959 143.32 307.93 144.024 305.242 145.432C302.554 146.84 300.442 148.867 298.906 151.512C297.412 154.115 296.666 157.165 296.666 160.664C296.666 164.163 297.412 167.235 298.906 169.88C300.399 172.525 302.468 174.552 305.114 175.96C307.759 177.368 310.746 178.072 314.074 178.072C317.956 178.072 321.135 177.283 323.61 175.704V163.992H315.098V158.68H330.138V179.16C328.132 180.824 325.764 182.04 323.034 182.808C320.346 183.576 317.252 183.96 313.754 183.96ZM356.366 138.264H374.35C379.129 138.264 382.798 139.416 385.358 141.72C387.918 144.024 389.198 147.395 389.198 151.832C389.198 155.117 388.324 157.912 386.574 160.216C384.825 162.477 382.35 164.013 379.15 164.824L389.006 183H382.222L372.686 165.336H362.894V183H356.366V138.264ZM373.262 159.832C376.121 159.832 378.382 159.171 380.046 157.848C381.753 156.483 382.606 154.477 382.606 151.832C382.606 148.931 381.774 146.861 380.11 145.624C378.489 144.387 376.206 143.768 373.262 143.768H362.894V159.832H373.262ZM436.776 183.96C432.338 183.96 428.328 183 424.744 181.08C421.16 179.117 418.344 176.365 416.296 172.824C414.248 169.283 413.224 165.229 413.224 160.664C413.224 156.099 414.248 152.045 416.296 148.504C418.344 144.963 421.16 142.211 424.744 140.248C428.328 138.285 432.338 137.304 436.776 137.304C441.213 137.304 445.224 138.285 448.808 140.248C452.392 142.211 455.208 144.963 457.256 148.504C459.304 152.045 460.328 156.099 460.328 160.664C460.328 165.229 459.304 169.283 457.256 172.824C455.208 176.365 452.392 179.117 448.808 181.08C445.224 183 441.213 183.96 436.776 183.96ZM436.776 178.072C439.933 178.072 442.792 177.368 445.352 175.96C447.954 174.509 450.002 172.483 451.496 169.88C452.989 167.235 453.736 164.163 453.736 160.664C453.736 157.208 452.989 154.179 451.496 151.576C450.045 148.931 448.04 146.904 445.48 145.496C442.92 144.045 440.061 143.32 436.904 143.32C433.704 143.32 430.802 144.024 428.2 145.432C425.64 146.84 423.592 148.867 422.056 151.512C420.562 154.157 419.816 157.208 419.816 160.664C419.816 164.163 420.562 167.235 422.056 169.88C423.549 172.483 425.576 174.509 428.136 175.96C430.738 177.368 433.618 178.072 436.776 178.072ZM504.755 183.96C498.653 183.96 494.045 182.403 490.931 179.288C487.816 176.131 486.259 171.8 486.259 166.296V138.264H492.787V166.552C492.787 170.349 493.853 173.229 495.987 175.192C498.12 177.112 501.043 178.072 504.755 178.072C508.424 178.072 511.325 177.112 513.459 175.192C515.592 173.229 516.659 170.349 516.659 166.552V138.264H523.187V166.296C523.187 171.757 521.629 176.067 518.515 179.224C515.4 182.381 510.813 183.96 504.755 183.96ZM550.404 138.264H567.62C572.441 138.264 576.238 139.48 579.012 141.912C581.828 144.301 583.236 147.715 583.236 152.152C583.236 156.675 581.849 160.109 579.076 162.456C576.302 164.76 572.484 165.912 567.62 165.912H556.932V183H550.404V138.264ZM566.916 160.472C569.902 160.472 572.27 159.853 574.02 158.616C575.769 157.379 576.644 155.224 576.644 152.152C576.644 149.08 575.769 146.925 574.02 145.688C572.27 144.408 569.902 143.768 566.916 143.768H556.932V160.472H566.916Z" fill="black"/>
<path d="M1 0.5H0.5V1V99.9885V100.488H1H25.7834H26.2834V99.9885V60.8364H58.4079H58.9079V60.3364V40.652V40.152H58.4079H26.2834V22.6005H70.4496H70.9496V22.1005V1V0.5H70.4496H1ZM203.454 0.5H202.954V1V99.9885V100.488H203.454H270.803H271.303V99.9885V78.8879V78.3879H270.803H228.737V1V0.5H228.237H203.454ZM632.476 100.28L653.352 71.2494L674.089 100.279L674.239 100.488H674.496H702.92H703.892L703.327 99.6977L668.11 50.4238L703.327 1.29129L703.894 0.5H702.92H674.496H674.239L674.089 0.709364L653.353 29.7372L632.617 0.709363L632.468 0.5H632.21H603.786H602.815L603.38 1.29052L638.457 50.4232L603.24 99.6977L602.675 100.488H603.646H632.07H632.327L632.476 100.28ZM879.583 38.3926L857.883 0.750289L857.739 0.5H857.45H830.986H830.112L830.556 1.2538L866.611 62.4553V99.9885V100.488H867.111H891.895H892.395V99.9885V62.4586L929.428 1.25886L929.887 0.5H929H902.676H902.394L902.248 0.742123L879.583 38.3926Z" fill="black" stroke="black"/>
<path d="M402.091 40.8081H471.101V62.0618H402.091V40.8081Z" fill="black" stroke="black"/>
<rect x="402.091" y="2.36993" width="69.0097" height="21.2537" fill="black" stroke="black"/>
<path d="M402.091 79.2463H471.101V100.5H402.091V79.2463Z" fill="black" stroke="black"/>
</svg>
